<svg height="878" width="720" xmlns="http://www.w3.org/2000/svg">
<rect height="878" fill="#555" width="720"></rect>
<text fill="#7f7" font-family="Courier New" font-size="12" xml:space="preserve">
<tspan x="10" y="26">9 megabytes installed</tspan>
<tspan x="10" y="42"></tspan>
<tspan x="10" y="58">node_modules</tspan>
<tspan x="10" y="74">├── UNMET PEER DEPENDENCY grunt@&gt;=0.4.0</tspan>
<tspan x="10" y="90">└─┬ grunt-htmlhint@0.9.13 </tspan>
<tspan x="10" y="106">  └─┬ htmlhint@0.9.13 </tspan>
<tspan x="10" y="122">    ├── async@1.4.2 </tspan>
<tspan x="10" y="138">    ├── colors@1.0.3 </tspan>
<tspan x="10" y="154">    ├── commander@2.6.0 </tspan>
<tspan x="10" y="170">    ├─┬ csslint@0.10.0 </tspan>
<tspan x="10" y="186">    │ └── parserlib@0.2.5 </tspan>
<tspan x="10" y="202">    ├─┬ glob@5.0.15 </tspan>
<tspan x="10" y="218">    │ ├─┬ inflight@1.0.6 </tspan>
<tspan x="10" y="234">    │ │ └── wrappy@1.0.2 </tspan>
<tspan x="10" y="250">    │ ├── inherits@2.0.3 </tspan>
<tspan x="10" y="266">    │ ├─┬ minimatch@3.0.3 </tspan>
<tspan x="10" y="282">    │ │ └─┬ brace-expansion@1.1.7 </tspan>
<tspan x="10" y="298">    │ │   ├── balanced-match@0.4.2 </tspan>
<tspan x="10" y="314">    │ │   └── concat-map@0.0.1 </tspan>
<tspan x="10" y="330">    │ ├── once@1.4.0 </tspan>
<tspan x="10" y="346">    │ └── path-is-absolute@1.0.1 </tspan>
<tspan x="10" y="362">    ├─┬ jshint@2.8.0 </tspan>
<tspan x="10" y="378">    │ ├─┬ cli@0.6.6 </tspan>
<tspan x="10" y="394">    │ │ └─┬ glob@3.2.11 </tspan>
<tspan x="10" y="410">    │ │   └─┬ minimatch@0.3.0 </tspan>
<tspan x="10" y="426">    │ │     ├── lru-cache@2.7.3 </tspan>
<tspan x="10" y="442">    │ │     └── sigmund@1.0.1 </tspan>
<tspan x="10" y="458">    │ ├─┬ console-browserify@1.1.0 </tspan>
<tspan x="10" y="474">    │ │ └── date-now@0.1.4 </tspan>
<tspan x="10" y="490">    │ ├── exit@0.1.2 </tspan>
<tspan x="10" y="506">    │ ├─┬ htmlparser2@3.8.3 </tspan>
<tspan x="10" y="522">    │ │ ├── domelementtype@1.3.0 </tspan>
<tspan x="10" y="538">    │ │ ├── domhandler@2.3.0 </tspan>
<tspan x="10" y="554">    │ │ ├─┬ domutils@1.5.1 </tspan>
<tspan x="10" y="570">    │ │ │ └─┬ dom-serializer@0.1.0 </tspan>
<tspan x="10" y="586">    │ │ │   ├── domelementtype@1.1.3 </tspan>
<tspan x="10" y="602">    │ │ │   └── entities@1.1.1 </tspan>
<tspan x="10" y="618">    │ │ ├── entities@1.0.0 </tspan>
<tspan x="10" y="634">    │ │ └─┬ readable-stream@1.1.14 </tspan>
<tspan x="10" y="650">    │ │   ├── core-util-is@1.0.2 </tspan>
<tspan x="10" y="666">    │ │   ├── isarray@0.0.1 </tspan>
<tspan x="10" y="682">    │ │   └── string_decoder@0.10.31 </tspan>
<tspan x="10" y="698">    │ ├── lodash@3.7.0 </tspan>
<tspan x="10" y="714">    │ ├── minimatch@2.0.10 </tspan>
<tspan x="10" y="730">    │ └── shelljs@0.3.0 </tspan>
<tspan x="10" y="746">    ├─┬ parse-glob@3.0.4 </tspan>
<tspan x="10" y="762">    │ ├─┬ glob-base@0.3.0 </tspan>
<tspan x="10" y="778">    │ │ └── glob-parent@2.0.0 </tspan>
<tspan x="10" y="794">    │ ├── is-dotfile@1.0.2 </tspan>
<tspan x="10" y="810">    │ ├── is-extglob@1.0.0 </tspan>
<tspan x="10" y="826">    │ └── is-glob@2.0.1 </tspan>
<tspan x="10" y="842">    ├── strip-json-comments@1.0.4 </tspan>
<tspan x="10" y="858">    └── xml@1.0.0</tspan>
</text>
</svg>
